<?xml version="1.0"?>
<svg width="580" height="400" xmlns="http://www.w3.org/2000/svg">
 <!-- Created with Method Draw - http://github.com/duopixel/Method-Draw/ -->

 <g>
  <title>background</title>
  <rect fill="#fff" id="canvas_background" height="402" width="582" y="-1" x="-1"/>
  <g display="none" overflow="visible" y="0" x="0" height="100%" width="100%" id="canvasGrid">
   <rect fill="url(#gridpattern)" stroke-width="0" y="0" x="0" height="100%" width="100%"/>
  </g>
 </g>
 <g>
  <title>Layer 1</title>
  <text style="cursor: move;" font-weight="bold" stroke="#000" transform="matrix(0.6990844475422762,0,0,0.6990844475422762,5.113989677307174,13.590695242723598) " xml:space="preserve" text-anchor="left" font-family="Georgia, Times, 'Times New Roman', serif" font-size="39" id="svg_1" y="84.304816" x="119.415657" stroke-width="0" fill="#335bbf">HTML5 Wechat Activity Generator</text>
  <path stroke="#000" id="svg_4" d="m44.061981,2.579559c-22.641983,0 -40.999969,13.78006 -40.999969,30.779831c0,9.723984 6.026505,18.387665 15.40979,24.02594c-1.335068,4.999359 -3.999664,10.536224 -9.148911,15.433624c0,0 12.019836,-0.899017 20.509613,-10.624008c0.488815,0.135422 0.994446,0.237335 1.488205,0.362595c-0.463989,-1.56279 -0.736633,-3.187592 -0.736633,-4.878021c0,-11.469223 11.304794,-20.450424 25.74324,-20.450424c10.371002,0 19.097229,4.650848 23.205246,11.513397c3.496902,-4.529938 5.529434,-9.776367 5.529434,-15.387039c0,-16.995834 -18.358063,-30.775894 -41.000015,-30.775894l0,0zm35.012161,55.102417c0,-9.429321 -10.182205,-17.079819 -22.750214,-17.079819c-12.561218,0 -22.748947,7.650497 -22.748947,17.079819c0,9.435059 10.187729,17.081314 22.748947,17.081314c2.781998,0 5.431793,-0.39325 7.895081,-1.0793c4.709595,5.398941 11.37883,5.895569 11.37883,5.895569c-2.855896,-2.718597 -4.331573,-5.789673 -5.073685,-8.566055c5.203079,-3.125473 8.549988,-7.932541 8.549988,-13.331528z" stroke-width="1.5" fill="#fff"/>
 </g>
</svg>